<svg width="90" height="90" viewBox="0 0 90 90" fill="none" xmlns="http://www.w3.org/2000/svg">
    <rect width="90" height="90" fill="#ffffff"/>
    <path d="M27.68 42.24L36.32 33.82L17 15H34.52L53.72 33.7L44.95 42.24H27.68Z" fill="#1E3C96"/>
    <path d="M62.75 59.57L44.96 42.24H62.48L80.26 59.57H62.75Z" fill="#C8140A"/>
    <path d="M58.4337 67.1741C58.3841 67.7876 58.3346 68.4011 58.2664 69.0205C58.2045 69.634 58.1053 70.3071 57.9752 70.9265C57.6221 72.7134 56.6555 73.8451 54.834 73.9404H54.2825V71.814C55.2924 71.8438 55.5836 71.4686 55.7695 70.5453C55.8934 69.9378 56.005 69.1337 56.0793 68.2998C56.197 67.2277 56.2838 66.1555 56.3457 65.0774H63.1053V73.9285H60.8439V67.1741H58.4337ZM15.4845 65.0774V67.1681H12.8699V73.9285H10.6146V67.1681H8V65.0774H15.4845ZM48.9727 67.1026C47.5043 67.1026 46.6555 68.0973 46.6555 69.497C46.6555 70.8908 47.4858 71.8915 48.9727 71.8915C50.4597 71.8915 51.2652 70.8789 51.2652 69.4792C51.2652 68.0913 50.4473 67.0966 48.9727 67.0966V67.1026ZM48.9851 74C46.259 74 44.4002 72.1595 44.4002 69.497C44.4002 66.8345 46.228 65 48.9851 65C51.7423 65 53.5328 66.8226 53.5328 69.4792C53.5328 72.1357 51.7113 74 48.9851 74ZM38.5081 68.1926H38.7745L41.4077 65.0774H44.3073L40.6456 69.1873L44.6109 73.9226H41.6245L38.7311 70.1999H38.5081V73.9226H36.2528V65.0774H38.5081V68.1926ZM20.8501 65.0774C22.8327 65.0774 24.3569 66.3342 24.3569 68.3117C24.3569 70.2892 22.8079 71.5281 20.8253 71.5281H19.2515V73.9226H16.9963V65.0774H20.8501ZM22.0892 68.3177C22.0892 67.5374 21.6369 67.1741 20.8563 67.1741H19.233V69.4375H20.8934C21.6431 69.4375 22.0954 69.0622 22.0954 68.3177H22.0892ZM31.4696 65.0774H33.8055V73.9226H31.6307V68.3594L28.223 73.9226H25.8872V65.0774H28.0682V70.6109L31.4696 65.0774ZM71.7051 69.4792C71.7051 68.0794 70.8872 67.0966 69.4126 67.0966C67.9442 67.0966 67.0954 68.0973 67.0954 69.497C67.0954 70.8908 67.9257 71.8915 69.4188 71.8915C70.9058 71.8915 71.7113 70.867 71.7113 69.4792H71.7051ZM69.425 74C66.7113 74 64.8401 72.1595 64.8401 69.503C64.8401 66.8465 66.6617 65.006 69.425 65.006C72.1884 65.006 73.9665 66.8286 73.9665 69.4851C73.9665 72.1416 72.1388 74 69.425 74ZM79.4994 65.0774C81.4758 65.0774 83 66.3342 83 68.3117C83 70.2892 81.4572 71.5281 79.4746 71.5281H77.9009V73.9226H75.6394V65.0774H79.4994ZM80.7385 68.3177C80.7385 67.5374 80.2924 67.1741 79.518 67.1741H77.9009V69.4375H79.5551C80.2986 69.4375 80.7509 69.0622 80.7509 68.3177H80.7385Z" fill="#1E3C96"/>
</svg>
